<svg xmlns="http://www.w3.org/2000/svg" viewBox="0 0 431.01 846.53"><defs><style>.cls-1{fill:#972f3d;opacity:0.92;}.cls-2{fill:#702b35;}.cls-3{fill:none;stroke:#f8eff0;stroke-miterlimit:10;}</style></defs><g id="Layer_2" data-name="Layer 2"><g id="Layer_1-2" data-name="Layer 1"><g id="body"><path class="cls-1" d="M406.91,559.56l-17.72-6.64s17.72-11.08,11.07-24.37l-56.47-86.37,44.29,43.19s-36.54-110.74-19.93-119.6l3.32-11.08,12.18,1.11s-12.18-44.3,3.32-54.26c0,0-58.69-45.41-36.54-63.12l59.8-23.26,6.64-14.4-6.64-52L418,136.53s-54.26-33.22-58.69-25.47-32.12-62-13.29-72,13.29-16.61,13.29-16.61-4.43-42.08-45.4-11.07L294,5.86s-11.07,41-6.64,57.59c0,0-8.86,42.08-1.11,46.51l-21-5.54s-93-43.19-173.86,29.9S-19.44,353.59,12.67,448.82,80.84,585,132.58,581.71c0,0,41.77-28.79,45.1-56.48,0,0-10-50.94-38.76-23.25,0,0,31-10,19.93,23.25,0,0-47.62,7.75-43.19-39.86,0,0,29.9-52.05,70.87-1.11,0,0,77.52,55.37,47.07,198.22l2.77,53.16s-48.73-8.86-45.41,33.22c0,0-12.18,45.4,19.94,65.34,0,0,66.44,50.94,97.45-54.27,0,0-11.08-127.35,21-146.17,27.72-16.25,56.25-18.46,67.81-6-4.64-9.62-8.67-26.3,15.24-31.7L430.16,585s-5.53-16.61,0-22.15S412.44,548.49,406.91,559.56Zm-295.77-274a21.93,21.93,0,1,1,21.92-21.93A21.93,21.93,0,0,1,111.14,285.57Z"/></g><path class="cls-2" d="M236.93,519.21l13.83-36.06-.83-7.89h5.82L236,444.39l41.11,44.16-2.9-15.78,2.9-1.38L301,466.54s-55-28.79-63.5-74.56L236,342.51s47.3,55.37,55.05,36.91c0,0,53.89-32.11,20.3-72.35,0,0-17.72-28.79-41.71-32.11,0,0,31-2.58,60.17,39.13,0,0,23.62,61.13,15.87,83l-11.44,32.56,9.6,12.55s-4.71,16.89-16.34,26.85l5,7.48s-25.75,30.38-60.63,36.54l-27.4,18.62Z"/><path class="cls-3" d="M127.84,581.71S27.07,558.28,49.22,423.26c0,0,43.91-55.92,102.79-75.53s55.07-92.29,44.86-104.15c0,0-27.68-45-48-34.33,0,0-33.22,3.7-22.15,30.64,0,0,16.6,30.56,21.78,31.75,0,0-2.58,34.33-31,38.39,0,0-33.23-.57-50.21-24.46,0,0-36.38-58-30.74-77.29"/><path class="cls-3" d="M173,510.47s6.14,46.88-53.54,51.31c0,0-111.16-108.62,2.17-148.08a17.71,17.71,0,0,1,14.92,1.54c13.44,8.09,42.84,27.19,58.33,48,0,0,68.55,73.19,80.34,149.94.81,5.32,1.79,10.61,3,15.85,5.06,22.3,15.63,91.24-26.29,158.68,0,0-41.9,26.32-36.37-24.37l20.87-27.68s-49-3.64-45.54,27.53"/></g></g></svg>